Genre:Drama
Language:English
IMDb:http://www.imdb.com/title/tt1422020/
Source:DVD


General
Complete name :Dog.Pound.2010.DVDRip.H264.Feel-Free
Format : MPEG-4
Format profile : Base Media
Codec ID : isom
File size : 1.11 GiB
Duration : 1h 30mn
Overall bit rate : 1 746 Kbps
Video #2
ID : 2
Format : AVC
Format/Info : Advanced Video Codec
Format profile : Baseline@L3.0
Format settings, CABAC : No
Format settings, ReFrames : 1 frame
Muxing mode : Container profile=Baseline@1.3
Codec ID : avc1
Codec ID/Info : Advanced Video Coding
Duration : 1h 30mn
Bit rate mode : Variable
Bit rate : 1 588 Kbps
Width : 720 pixels
Height : 304 pixels
Display aspect ratio : 2.35:1
Frame rate mode : Constant
Frame rate : 23.976 fps
Original frame rate : 23.000 fps
Resolution : 24 bits
Colorimetry : 4:2:0
Scan type : Progressive
Bits/(Pixel*Frame) : 0.303
Stream size : 1.01 GiB (91%)
Audio #1
ID : 1
Format : AAC
Format/Info : Advanced Audio Codec
Format version : Version 4
Format profile : LC
Format settings, SBR : No
Codec ID : 40
Duration : 1h 30mn
Bit rate mode : Constant
Bit rate : 152 Kbps
Channel(s) : 2 channels
Channel positions : L R
Sampling rate : 44.1 KHz
Resolution : 16 bits
Stream size : 98.9 MiB (9%)

Plot
Three juvenile delinquents arrive at a correctional center and are put under the care of an experienced guard